<?xml version="1.0" standalone="no"?>
<!DOCTYPE svg PUBLIC "-//W3C//DTD SVG 20010904//EN"
 "http://www.w3.org/TR/2001/REC-SVG-20010904/DTD/svg10.dtd">
<svg version="1.0" xmlns="http://www.w3.org/2000/svg"
 width="700.000000pt" height="700.000000pt" viewBox="0 0 700.000000 700.000000"
 preserveAspectRatio="xMidYMid meet">
<metadata>
Created by potrace 1.14, written by Peter Selinger 2001-2017
</metadata>
<g transform="translate(0.000000,700.000000) scale(0.100000,-0.100000)"
fill="#000000" stroke="none">
<path d="M336 6868 c-14 -22 -17 -59 -15 -203 0 -27 0 -69 0 -92 -1 -54 -1
-58 0 -178 1 -55 0 -104 -1 -110 -1 -5 -2 -14 0 -20 1 -7 1 -274 -1 -370 0 -5
0 -39 1 -75 0 -36 0 -87 0 -114 0 -27 3 -53 6 -57 3 -5 1 -9 -4 -9 -6 0 -7
-14 -3 -32 4 -18 4 -48 0 -65 -3 -18 -4 -33 0 -33 7 0 5 -86 -3 -106 -3 -8 -2
-14 2 -14 6 0 7 -86 2 -115 -2 -6 -2 -14 -1 -20 3 -13 3 -288 0 -295 -1 -3 -1
-9 0 -14 1 -4 2 -40 1 -80 0 -128 1 -170 6 -178 3 -4 1 -8 -5 -8 -6 0 -8 -6
-5 -14 8 -21 10 -106 2 -106 -4 0 -5 -6 -2 -14 8 -21 10 -106 2 -106 -4 0 -5
-6 -2 -14 9 -23 10 -106 1 -106 -5 0 -5 -5 -2 -11 6 -9 10 -276 5 -304 -1 -5
-1 -21 0 -35 5 -59 5 -120 -1 -120 -11 0 12 -125 28 -149 32 -50 56 -65 268
-176 83 -43 155 -82 160 -86 6 -4 49 -28 95 -52 47 -24 115 -60 153 -80 37
-21 96 -53 132 -72 36 -19 93 -50 128 -69 34 -18 100 -54 147 -79 47 -24 105
-56 130 -70 62 -34 284 -153 405 -217 55 -29 114 -61 130 -70 17 -10 71 -39
120 -65 97 -52 339 -181 420 -225 28 -15 91 -49 140 -75 50 -26 110 -59 135
-73 25 -14 83 -45 130 -70 47 -24 108 -57 135 -72 320 -175 313 -171 349 -156
51 22 111 51 116 56 3 3 28 16 55 30 28 14 52 27 55 30 5 5 75 42 200 107 30
15 57 30 60 33 3 3 30 18 60 33 30 15 89 46 130 68 108 60 207 113 270 146 30
15 57 30 60 33 3 3 37 21 75 40 39 19 72 37 75 40 5 5 12 9 210 112 74 39 140
74 145 78 6 4 69 38 140 75 72 38 132 72 133 77 2 4 10 8 18 8 8 0 31 11 52
24 40 25 158 86 167 86 3 0 5 -119 5 -264 l0 -264 -32 -20 c-18 -11 -64 -37
-103 -57 -145 -78 -192 -103 -250 -135 -33 -18 -87 -47 -120 -65 -33 -18 -80
-43 -105 -57 -43 -24 -114 -62 -260 -140 -36 -19 -123 -66 -195 -103 -71 -38
-132 -71 -135 -74 -3 -3 -34 -21 -70 -38 -36 -18 -87 -46 -115 -61 -27 -16
-108 -59 -180 -97 -71 -37 -134 -71 -140 -75 -12 -9 -109 -62 -243 -132 -89
-47 -95 -48 -130 -37 -20 6 -63 27 -95 45 -32 19 -60 34 -62 34 -2 0 -26 13
-52 28 -26 16 -97 55 -158 87 -60 32 -128 68 -150 80 -22 12 -94 50 -160 85
-66 35 -132 72 -147 82 -16 11 -28 16 -28 13 0 -3 -12 2 -28 12 -44 29 -61 39
-177 99 -60 31 -184 97 -275 147 -91 50 -196 107 -235 127 -38 21 -95 51 -125
68 -202 110 -312 169 -355 191 -27 14 -52 28 -55 31 -3 3 -30 17 -60 32 -63
32 -94 48 -641 344 -147 80 -276 147 -288 149 -44 8 -59 -24 -59 -124 1 -51
-1 -94 -4 -96 -2 -2 -1 -31 2 -65 3 -33 2 -60 -2 -60 -4 0 -5 -6 -2 -14 9 -23
10 -106 1 -106 -5 0 -5 -4 -2 -10 6 -9 9 -94 5 -115 -1 -5 -1 -14 0 -20 2 -13
2 -87 0 -100 -1 -5 -1 -14 0 -20 2 -12 2 -266 0 -280 -1 -5 -1 -21 0 -35 5
-59 5 -120 -1 -120 -13 0 11 -103 31 -135 26 -42 48 -58 175 -125 55 -29 127
-67 160 -85 33 -18 114 -61 180 -95 66 -35 122 -67 123 -72 2 -4 12 -8 22 -8
10 0 21 -4 24 -9 3 -5 32 -22 63 -38 61 -31 99 -52 408 -218 105 -56 219 -117
255 -136 36 -19 67 -36 70 -39 3 -3 21 -13 40 -22 71 -35 225 -120 234 -129 6
-5 18 -9 27 -9 10 0 19 -4 21 -8 2 -5 55 -35 118 -69 102 -53 164 -87 345
-185 28 -15 75 -40 105 -56 59 -30 150 -80 320 -172 398 -216 394 -214 462
-213 42 1 73 9 115 31 144 74 168 87 173 92 3 3 32 20 65 36 33 17 98 52 145
77 188 102 216 117 250 132 19 9 37 19 40 23 5 6 121 68 275 147 33 16 62 32
65 35 3 3 39 23 80 45 41 21 89 46 105 55 17 9 68 37 115 62 47 25 117 63 155
83 39 21 95 52 125 68 148 79 341 183 395 212 33 18 90 49 128 69 37 20 97 52
135 72 80 44 175 95 257 139 33 18 105 56 160 85 319 169 340 183 371 240 l21
39 -2 1548 c-1 851 -3 1554 -4 1561 0 7 -13 17 -27 23 -22 8 -38 4 -93 -23
-36 -18 -68 -35 -71 -38 -3 -3 -25 -15 -50 -28 -83 -43 -235 -124 -265 -142
-16 -10 -70 -39 -120 -65 -49 -26 -112 -60 -140 -75 -27 -15 -99 -53 -160 -85
-60 -32 -114 -61 -120 -65 -5 -4 -55 -31 -110 -60 -55 -29 -113 -61 -130 -70
-16 -10 -88 -48 -160 -85 -71 -38 -142 -76 -157 -87 -14 -10 -29 -18 -33 -18
-4 0 -77 -38 -162 -85 -85 -47 -159 -85 -164 -85 -5 0 -9 -5 -9 -12 0 -6 -3
-8 -7 -5 -3 4 -11 3 -17 -2 -6 -4 -110 -61 -231 -126 -121 -65 -245 -131 -275
-148 -30 -17 -84 -46 -120 -65 -36 -18 -105 -56 -155 -83 -49 -27 -159 -85
-243 -130 -173 -91 -151 -90 -276 -20 -80 45 -149 83 -241 131 -55 29 -113 61
-130 70 -16 10 -66 37 -110 60 -44 24 -102 55 -130 70 -27 15 -90 49 -140 75
-49 26 -112 60 -140 75 -116 63 -272 147 -305 164 -34 17 -70 37 -190 103 -30
17 -98 53 -150 81 -52 28 -133 71 -180 96 -47 26 -101 54 -120 64 -19 9 -36
20 -38 25 -2 4 -9 7 -16 7 -7 0 -19 8 -27 18 -12 14 -14 62 -13 252 3 313 2
294 17 283 6 -6 62 -36 122 -68 164 -86 276 -146 310 -165 17 -10 84 -46 150
-80 66 -35 125 -66 130 -70 10 -7 198 -107 272 -145 23 -12 49 -27 57 -34 8
-7 21 -13 28 -15 7 -1 31 -13 53 -26 22 -14 42 -25 45 -25 6 -1 75 -37 128
-67 20 -11 69 -37 107 -58 119 -63 305 -163 410 -220 28 -15 89 -48 137 -74
l88 -47 117 62 c65 34 123 65 128 69 6 4 51 29 100 55 50 26 113 60 140 75 28
15 95 51 150 80 55 30 103 59 107 64 4 6 8 7 8 2 0 -5 6 -4 12 2 12 8 71 41
223 121 28 14 53 30 57 36 4 5 8 6 8 1 0 -5 6 -4 13 1 24 20 208 117 217 115
3 0 12 5 20 12 15 13 100 60 230 127 36 19 67 36 70 39 5 5 37 23 190 103 30
16 100 53 155 83 55 29 136 72 180 95 44 23 82 44 85 48 8 9 104 55 113 53 4
-1 7 3 7 8 0 6 4 10 10 10 5 0 32 13 60 30 27 16 50 26 50 22 0 -4 4 -2 8 4 4
5 57 36 117 68 126 67 218 117 290 156 28 15 91 49 140 75 99 52 129 75 153
120 15 27 17 94 18 635 2 651 2 650 -49 650 -12 0 -49 -15 -82 -33 -33 -18
-100 -55 -150 -81 -49 -27 -112 -61 -140 -76 -27 -16 -79 -44 -115 -62 -36
-19 -99 -53 -140 -75 -127 -69 -193 -104 -255 -137 -33 -17 -61 -34 -63 -38
-2 -5 -12 -8 -23 -8 -10 0 -19 -4 -19 -8 0 -4 -12 -13 -27 -19 -16 -6 -55 -27
-88 -45 -57 -32 -149 -82 -330 -178 -44 -23 -102 -55 -130 -70 -63 -34 -184
-99 -390 -210 -44 -23 -107 -57 -140 -75 -33 -18 -96 -52 -140 -75 -112 -60
-188 -101 -275 -149 -41 -23 -87 -46 -102 -52 -16 -6 -28 -15 -28 -21 0 -5 -4
-7 -8 -4 -5 3 -19 -2 -32 -11 -22 -16 -67 -41 -165 -91 -27 -14 -52 -28 -55
-31 -3 -4 -56 -32 -118 -64 l-114 -58 -41 22 c-23 12 -64 34 -92 49 -74 41
-339 183 -405 218 -72 38 -238 127 -310 166 -41 23 -91 50 -110 59 -19 10 -60
32 -90 48 -106 58 -226 122 -330 177 -58 30 -119 63 -137 73 -58 35 -198 110
-225 120 -16 6 -28 15 -28 20 0 5 -8 9 -18 9 -9 0 -33 11 -52 24 -19 13 -53
32 -75 43 -38 18 -115 60 -230 123 -27 15 -79 43 -115 62 -36 19 -94 51 -130
70 -77 42 -180 98 -270 146 -36 19 -87 47 -115 62 -27 15 -99 53 -160 85 -60
32 -126 66 -145 77 -46 24 -66 23 -84 -4z"/>
</g>
</svg>
