<svg width="15" height="18" viewBox="0 0 15 18" fill="none" xmlns="http://www.w3.org/2000/svg">
<path d="M0 2.7C0 1.42721 0 0.790812 0.402728 0.395406C0.805456 0 1.45364 0 2.75 0H12.25C13.5464 0 14.1945 0 14.5973 0.395406C15 0.790812 15 1.42721 15 2.7V5.48182C15 6.75461 15 7.39101 14.5973 7.78641C14.1945 8.18182 13.5464 8.18182 12.25 8.18182H2.75C1.45364 8.18182 0.805456 8.18182 0.402728 7.78641C0 7.39101 0 6.75461 0 5.48182V2.7Z" fill="#fff"/>
<path d="M0 12.5182C0 11.2454 0 10.609 0.402728 10.2136C0.805456 9.81818 1.45364 9.81818 2.75 9.81818H12.25C13.5464 9.81818 14.1945 9.81818 14.5973 10.2136C15 10.609 15 11.2454 15 12.5182V15.3C15 16.5728 15 17.2092 14.5973 17.6046C14.1945 18 13.5464 18 12.25 18H2.75C1.45364 18 0.805456 18 0.402728 17.6046C0 17.2092 0 16.5728 0 15.3V12.5182Z" fill="#fff"/>
</svg>
