<svg width="26" height="17" viewBox="0 0 26 17" fill="none" xmlns="http://www.w3.org/2000/svg">
<path d="M16.2032 7.73818H23.7671C25.2518 7.73818 26 7.1472 26 5.92831V1.80065C26 0.581725 25.2518 0 23.7671 0H16.2032C14.7185 0 13.9703 0.581725 13.9703 1.80065V5.92831C13.9703 7.1472 14.7185 7.73818 16.2032 7.73818ZM2.23288 7.73818H9.79675C11.2815 7.73818 12.0297 7.1472 12.0297 5.92831V1.80065C12.0297 0.581725 11.2815 0 9.79675 0H2.23288C0.748201 0 0 0.581725 0 1.80065V5.92831C0 7.1472 0.748201 7.73818 2.23288 7.73818ZM2.23288 17H9.79675C11.2815 17 12.0297 16.4183 12.0297 15.1994V11.0625C12.0297 9.8528 11.2815 9.26182 9.79675 9.26182H2.23288C0.748201 9.26182 0 9.8528 0 11.0625V15.1994C0 16.4183 0.748201 17 2.23288 17ZM16.2032 17H23.7671C25.2518 17 26 16.4183 26 15.1994V11.0625C26 9.8528 25.2518 9.26182 23.7671 9.26182H16.2032C14.7185 9.26182 13.9703 9.8528 13.9703 11.0625V15.1994C13.9703 16.4183 14.7185 17 16.2032 17Z" fill="#fff"/>
</svg>
