<svg width="25" height="20" viewBox="0 0 25 20" fill="none" xmlns="http://www.w3.org/2000/svg">
<path d="M20.1646 9.10374H22.7851C24.2579 9.10374 25 8.40847 25 6.97449V2.11841C25 0.684383 24.2579 0 22.7851 0H20.1646C18.6919 0 17.9498 0.684383 17.9498 2.11841V6.97449C17.9498 8.40847 18.6919 9.10374 20.1646 9.10374ZM2.21471 9.10374H4.83531C6.30796 9.10374 7.05007 8.40847 7.05007 6.97449V2.11841C7.05007 0.684383 6.30796 0 4.83531 0H2.21471C0.742113 0 0 0.684383 0 2.11841V6.97449C0 8.40847 0.742113 9.10374 2.21471 9.10374ZM11.1897 9.10374H13.8103C15.2829 9.10374 16.025 8.40847 16.025 6.97449V2.11841C16.025 0.684383 15.2829 0 13.8103 0H11.1897C9.71703 0 8.97491 0.684383 8.97491 2.11841V6.97449C8.97491 8.40847 9.71703 9.10374 11.1897 9.10374ZM2.21471 20H4.83531C6.30796 20 7.05007 19.3156 7.05007 17.8816V13.0147C7.05007 11.5915 6.30796 10.8963 4.83531 10.8963H2.21471C0.742113 10.8963 0 11.5915 0 13.0147V17.8816C0 19.3156 0.742113 20 2.21471 20ZM11.1897 20H13.8103C15.2829 20 16.025 19.3156 16.025 17.8816V13.0147C16.025 11.5915 15.2829 10.8963 13.8103 10.8963H11.1897C9.71703 10.8963 8.97491 11.5915 8.97491 13.0147V17.8816C8.97491 19.3156 9.71703 20 11.1897 20ZM20.1646 20H22.7851C24.2579 20 25 19.3156 25 17.8816V13.0147C25 11.5915 24.2579 10.8963 22.7851 10.8963H20.1646C18.6919 10.8963 17.9498 11.5915 17.9498 13.0147V17.8816C17.9498 19.3156 18.6919 20 20.1646 20Z" fill="white"/>
</svg>
