<svg width="23" height="17" viewBox="0 0 23 17" fill="none" xmlns="http://www.w3.org/2000/svg">
<rect width="23" height="17" rx="4" fill="#fff"/>
<path d="M8.88002 11.54H8.02002V13H7.08002V11.54H3.34002V10.67L6.75002 5.77H8.02002V10.67H8.88002V11.54ZM4.40002 10.67H7.08002V6.81L4.40002 10.67ZM10.1895 7.33L9.53955 7.1L9.73955 6.58L10.3595 6.79C10.7195 6.91 10.9195 7.02 11.1295 7.16C11.0695 6.91 11.0395 6.67 11.0395 6.32V5.63H11.5995V6.32C11.5995 6.67 11.5595 6.93 11.5095 7.16C11.7195 7.03 11.9195 6.91 12.2695 6.79L12.8995 6.57L13.1095 7.1L12.4495 7.33C12.1195 7.45 11.8595 7.49 11.6295 7.52C11.8395 7.7 11.9895 7.86 12.1795 8.16L12.5695 8.72L12.1095 9.04L11.7195 8.49C11.5095 8.19 11.3995 7.96 11.3095 7.75C11.2295 7.99 11.1195 8.22 10.9195 8.49L10.5195 9.04L10.0495 8.72L10.4395 8.16C10.6495 7.86 10.8195 7.69 11.0095 7.52C10.7095 7.48 10.4795 7.44 10.1895 7.33ZM18.6945 11.54H17.8345V13H16.8945V11.54H13.1545V10.67L16.5645 5.77H17.8345V10.67H18.6945V11.54ZM14.2145 10.67H16.8945V6.81L14.2145 10.67Z" fill="#2E2E38"/>
</svg>
