<svg width="23" height="17" viewBox="0 0 23 17" fill="none" xmlns="http://www.w3.org/2000/svg">
<rect width="23" height="17" rx="4" fill="#fff"/>
<path d="M6.91995 13.12C5.43995 13.12 4.47995 12.18 4.47995 10.74H5.44995C5.44995 11.67 6.01995 12.24 6.93995 12.24C7.91995 12.24 8.54995 11.59 8.54995 10.61C8.54995 9.68 7.95995 8.99 6.94995 8.99C6.33995 8.99 5.77995 9.28 5.44995 9.69L4.61995 9.48L5.49995 5.77H9.11995V6.67H6.20995L5.72995 8.59C6.10995 8.3 6.58995 8.15 7.12995 8.15C8.59995 8.15 9.54995 9.18 9.54995 10.57C9.54995 12.07 8.47995 13.12 6.91995 13.12ZM10.8282 7.33L10.1782 7.1L10.3782 6.58L10.9982 6.79C11.3582 6.91 11.5582 7.02 11.7682 7.16C11.7082 6.91 11.6782 6.67 11.6782 6.32V5.63H12.2382V6.32C12.2382 6.67 12.1982 6.93 12.1482 7.16C12.3582 7.03 12.5582 6.91 12.9082 6.79L13.5382 6.57L13.7482 7.1L13.0882 7.33C12.7582 7.45 12.4982 7.49 12.2682 7.52C12.4782 7.7 12.6282 7.86 12.8182 8.16L13.2082 8.72L12.7482 9.04L12.3582 8.49C12.1482 8.19 12.0382 7.96 11.9482 7.75C11.8682 7.99 11.7582 8.22 11.5582 8.49L11.1582 9.04L10.6882 8.72L11.0782 8.16C11.2882 7.86 11.4582 7.69 11.6482 7.52C11.3482 7.48 11.1182 7.44 10.8282 7.33ZM16.7442 13.12C15.2642 13.12 14.3042 12.18 14.3042 10.74H15.2742C15.2742 11.67 15.8442 12.24 16.7642 12.24C17.7442 12.24 18.3742 11.59 18.3742 10.61C18.3742 9.68 17.7842 8.99 16.7742 8.99C16.1642 8.99 15.6042 9.28 15.2742 9.69L14.4442 9.48L15.3242 5.77H18.9442V6.67H16.0342L15.5542 8.59C15.9342 8.3 16.4142 8.15 16.9542 8.15C18.4242 8.15 19.3742 9.18 19.3742 10.57C19.3742 12.07 18.3042 13.12 16.7442 13.12Z" fill="#2E2E38"/>
</svg>
