<svg width="23" height="17" viewBox="0 0 23 17" fill="none" xmlns="http://www.w3.org/2000/svg">
<rect width="23" height="17" rx="4" fill="#fff"/>
<path d="M4.40995 8.06L6.09995 5.77H7.23995L5.42995 8.17C5.67995 8.07 5.93995 8.02 6.18995 8.02C7.68995 8.02 8.69995 9.1 8.69995 10.53C8.69995 12.04 7.55995 13.12 6.06995 13.12C4.56995 13.12 3.40995 11.99 3.40995 10.53C3.40995 9.67 3.66995 9.07 4.40995 8.06ZM4.40995 10.54C4.40995 11.53 5.08995 12.24 6.06995 12.24C7.02995 12.24 7.70995 11.53 7.70995 10.54C7.70995 9.55 7.02995 8.85 6.06995 8.85C5.08995 8.85 4.40995 9.55 4.40995 10.54ZM10.0332 7.33L9.38324 7.1L9.58324 6.58L10.2032 6.79C10.5632 6.91 10.7632 7.02 10.9732 7.16C10.9132 6.91 10.8832 6.67 10.8832 6.32V5.63H11.4432V6.32C11.4432 6.67 11.4032 6.93 11.3532 7.16C11.5632 7.03 11.7632 6.91 12.1132 6.79L12.7432 6.57L12.9532 7.1L12.2932 7.33C11.9632 7.45 11.7032 7.49 11.4732 7.52C11.6832 7.7 11.8332 7.86 12.0232 8.16L12.4132 8.72L11.9532 9.04L11.5632 8.49C11.3532 8.19 11.2432 7.96 11.1532 7.75C11.0732 7.99 10.9632 8.22 10.7632 8.49L10.3632 9.04L9.89324 8.72L10.2832 8.16C10.4932 7.86 10.6632 7.69 10.8532 7.52C10.5532 7.48 10.3232 7.44 10.0332 7.33ZM14.6346 8.06L16.3246 5.77H17.4646L15.6546 8.17C15.9046 8.07 16.1646 8.02 16.4146 8.02C17.9146 8.02 18.9246 9.1 18.9246 10.53C18.9246 12.04 17.7846 13.12 16.2946 13.12C14.7946 13.12 13.6346 11.99 13.6346 10.53C13.6346 9.67 13.8946 9.07 14.6346 8.06ZM14.6346 10.54C14.6346 11.53 15.3146 12.24 16.2946 12.24C17.2546 12.24 17.9346 11.53 17.9346 10.54C17.9346 9.55 17.2546 8.85 16.2946 8.85C15.3146 8.85 14.6346 9.55 14.6346 10.54Z" fill="#2E2E38"/>
</svg>
