<svg width="23" height="17" viewBox="0 0 23 17" fill="none" xmlns="http://www.w3.org/2000/svg">
<rect width="23" height="17" rx="4" fill="#fff"/>
<path d="M3.07995 5.77H8.12995V6.67L5.38995 13H4.36995L7.13995 6.67H3.07995V5.77ZM9.60355 7.33L8.95355 7.1L9.15355 6.58L9.77355 6.79C10.1335 6.91 10.3335 7.02 10.5435 7.16C10.4835 6.91 10.4535 6.67 10.4535 6.32V5.63H11.0135V6.32C11.0135 6.67 10.9735 6.93 10.9235 7.16C11.1335 7.03 11.3335 6.91 11.6835 6.79L12.3135 6.57L12.5235 7.1L11.8635 7.33C11.5335 7.45 11.2735 7.49 11.0435 7.52C11.2535 7.7 11.4035 7.86 11.5935 8.16L11.9835 8.72L11.5235 9.04L11.1335 8.49C10.9235 8.19 10.8135 7.96 10.7235 7.75C10.6435 7.99 10.5335 8.22 10.3335 8.49L9.93355 9.04L9.46355 8.72L9.85355 8.16C10.0635 7.86 10.2335 7.69 10.4235 7.52C10.1235 7.48 9.89355 7.44 9.60355 7.33ZM13.3143 5.77H18.3643V6.67L15.6243 13H14.6043L17.3743 6.67H13.3143V5.77Z" fill="#2E2E38"/>
</svg>
