<svg width="23" height="17" viewBox="0 0 23 17" fill="none" xmlns="http://www.w3.org/2000/svg">
<rect width="23" height="17" rx="4" fill="#fff"/>
<path d="M3.46995 10.99C3.46995 10.12 3.97995 9.42 4.77995 9.13C4.09995 8.84 3.72995 8.27 3.72995 7.54C3.72995 6.41 4.69995 5.64 6.13995 5.64C7.55995 5.64 8.51995 6.41 8.51995 7.55C8.51995 8.29 8.13995 8.86 7.45995 9.13C8.26995 9.39 8.78995 10.11 8.78995 11C8.78995 12.27 7.72995 13.12 6.12995 13.12C4.51995 13.12 3.46995 12.27 3.46995 10.99ZM4.62995 7.6C4.62995 8.31 5.21995 8.77 6.11995 8.77C7.02995 8.77 7.59995 8.32 7.59995 7.62C7.59995 6.93 7.02995 6.49 6.11995 6.49C5.21995 6.49 4.62995 6.93 4.62995 7.6ZM4.42995 10.92C4.42995 11.73 5.09995 12.25 6.12995 12.25C7.14995 12.25 7.81995 11.73 7.81995 10.92C7.81995 10.12 7.15995 9.61 6.11995 9.61C5.08995 9.61 4.42995 10.12 4.42995 10.92ZM10.17 7.33L9.51995 7.1L9.71995 6.58L10.34 6.79C10.7 6.91 10.9 7.02 11.11 7.16C11.05 6.91 11.02 6.67 11.02 6.32V5.63H11.58V6.32C11.58 6.67 11.54 6.93 11.49 7.16C11.7 7.03 11.9 6.91 12.25 6.79L12.88 6.57L13.09 7.1L12.43 7.33C12.1 7.45 11.84 7.49 11.61 7.52C11.82 7.7 11.97 7.86 12.16 8.16L12.55 8.72L12.09 9.04L11.7 8.49C11.49 8.19 11.38 7.96 11.29 7.75C11.21 7.99 11.1 8.22 10.9 8.49L10.5 9.04L10.03 8.72L10.42 8.16C10.63 7.86 10.8 7.69 10.99 7.52C10.69 7.48 10.46 7.44 10.17 7.33ZM13.8313 10.99C13.8313 10.12 14.3413 9.42 15.1413 9.13C14.4613 8.84 14.0913 8.27 14.0913 7.54C14.0913 6.41 15.0613 5.64 16.5013 5.64C17.9213 5.64 18.8813 6.41 18.8813 7.55C18.8813 8.29 18.5013 8.86 17.8213 9.13C18.6313 9.39 19.1513 10.11 19.1513 11C19.1513 12.27 18.0913 13.12 16.4913 13.12C14.8813 13.12 13.8313 12.27 13.8313 10.99ZM14.9913 7.6C14.9913 8.31 15.5813 8.77 16.4813 8.77C17.3913 8.77 17.9613 8.32 17.9613 7.62C17.9613 6.93 17.3913 6.49 16.4813 6.49C15.5813 6.49 14.9913 6.93 14.9913 7.6ZM14.7913 10.92C14.7913 11.73 15.4613 12.25 16.4913 12.25C17.5113 12.25 18.1813 11.73 18.1813 10.92C18.1813 10.12 17.5213 9.61 16.4813 9.61C15.4513 9.61 14.7913 10.12 14.7913 10.92Z" fill="#2E2E38"/>
</svg>
