<svg width="23" height="17" viewBox="0 0 23 17" fill="none" xmlns="http://www.w3.org/2000/svg">
<rect width="23" height="17" rx="4" fill="#fff"/>
<path d="M7.69995 10.71L6.00995 13H4.86995L6.67995 10.6C6.42995 10.7 6.16995 10.75 5.91995 10.75C4.41995 10.75 3.40995 9.67 3.40995 8.23C3.40995 6.73 4.54995 5.64 6.03995 5.64C7.53995 5.64 8.69995 6.77 8.69995 8.24C8.69995 9.09 8.43995 9.7 7.69995 10.71ZM7.69995 8.23C7.69995 7.24 7.01995 6.52 6.03995 6.52C5.07995 6.52 4.39995 7.24 4.39995 8.23C4.39995 9.22 5.07995 9.92 6.03995 9.92C7.01995 9.92 7.69995 9.22 7.69995 8.23ZM10.0332 7.33L9.38324 7.1L9.58324 6.58L10.2032 6.79C10.5632 6.91 10.7632 7.02 10.9732 7.16C10.9132 6.91 10.8832 6.67 10.8832 6.32V5.63H11.4432V6.32C11.4432 6.67 11.4032 6.93 11.3532 7.16C11.5632 7.03 11.7632 6.91 12.1132 6.79L12.7432 6.57L12.9532 7.1L12.2932 7.33C11.9632 7.45 11.7032 7.49 11.4732 7.52C11.6832 7.7 11.8332 7.86 12.0232 8.16L12.4132 8.72L11.9532 9.04L11.5632 8.49C11.3532 8.19 11.2432 7.96 11.1532 7.75C11.0732 7.99 10.9632 8.22 10.7632 8.49L10.3632 9.04L9.89324 8.72L10.2832 8.16C10.4932 7.86 10.6632 7.69 10.8532 7.52C10.5532 7.48 10.3232 7.44 10.0332 7.33ZM17.9246 10.71L16.2346 13H15.0946L16.9046 10.6C16.6546 10.7 16.3946 10.75 16.1446 10.75C14.6446 10.75 13.6346 9.67 13.6346 8.23C13.6346 6.73 14.7746 5.64 16.2646 5.64C17.7646 5.64 18.9246 6.77 18.9246 8.24C18.9246 9.09 18.6646 9.7 17.9246 10.71ZM17.9246 8.23C17.9246 7.24 17.2446 6.52 16.2646 6.52C15.3046 6.52 14.6246 7.24 14.6246 8.23C14.6246 9.22 15.3046 9.92 16.2646 9.92C17.2446 9.92 17.9246 9.22 17.9246 8.23Z" fill="#2E2E38"/>
</svg>
