<svg width="18" height="18" viewBox="0 0 18 18" fill="none" xmlns="http://www.w3.org/2000/svg">
<path d="M15.7673 0.587089C15.3493 0.741776 15.0592 1.00193 14.8762 1.3992C14.776 1.61365 14.7656 1.66639 14.7656 1.96873C14.7656 2.15154 14.7725 2.34842 14.7829 2.40467C14.8002 2.5031 14.7829 2.51717 13.5844 3.24139L12.3651 3.97967L12.2373 3.86717C12.0681 3.71248 11.7883 3.58592 11.5155 3.54021C10.9801 3.44529 10.4067 3.70545 10.0683 4.19412L9.99918 4.29607L8.91809 3.75467L7.83701 3.21678L7.85082 3.11131C7.87845 2.91092 7.80938 2.58748 7.68503 2.33435C7.25329 1.44139 6.09276 1.24451 5.37089 1.93709C5.02204 2.27459 4.8528 2.78435 4.93914 3.23787C4.96332 3.36092 4.98405 3.49451 4.9875 3.5367C4.99095 3.59646 4.70082 3.83201 3.60247 4.66873L2.21398 5.72342L2.07582 5.66014C1.36086 5.30857 0.497368 5.63553 0.141612 6.3949C0.0241776 6.64451 0.0172697 6.6867 0.0172697 6.99607C0.0172697 7.37576 0.0725329 7.56209 0.269408 7.87146C0.652796 8.46209 1.47829 8.67654 2.12418 8.3531C2.42812 8.19842 2.65609 7.95935 2.81151 7.62889C2.91168 7.41443 2.91859 7.37928 2.91168 7.03123C2.90822 6.82732 2.90132 6.61639 2.89441 6.56365C2.88405 6.46873 2.96694 6.40193 4.28289 5.39998L5.68174 4.33826L5.90625 4.42264C6.09967 4.49646 6.17566 4.5035 6.45888 4.49295C6.81809 4.47537 7.06332 4.38748 7.28438 4.20115L7.39836 4.0992L9.87138 5.35779L9.91283 5.49842C10.013 5.84646 10.3273 6.19451 10.7003 6.37381C10.8799 6.45818 10.987 6.48631 11.2115 6.49685C12.0301 6.54256 12.6794 5.96599 12.7658 5.11873L12.79 4.89021L14.0956 4.09568C14.814 3.65975 15.415 3.30467 15.4322 3.30467C15.4495 3.30467 15.5497 3.34334 15.6533 3.39256C16.1783 3.63514 16.8484 3.491 17.2663 3.041C17.9605 2.29568 17.7498 1.12146 16.8414 0.667948C16.6273 0.558964 16.5651 0.544901 16.2715 0.53787C16.0194 0.527323 15.8985 0.541385 15.7673 0.587089Z" fill="#BCBCBC"/>
<path d="M15.0799 6.53904C15.0281 6.55662 14.9521 6.59881 14.9141 6.63396C14.7414 6.79217 14.7484 6.52498 14.7484 12.0269C14.7484 17.1176 14.7484 17.1668 14.8174 17.2793C14.9521 17.5008 15.0005 17.5078 16.2232 17.5078C17.2594 17.5078 17.3285 17.5043 17.4355 17.4375C17.4977 17.3988 17.5771 17.3179 17.6151 17.2547C17.6842 17.1387 17.6842 17.0648 17.6842 12.0234C17.6842 7.09803 17.6808 6.90115 17.6186 6.78513C17.584 6.71834 17.5012 6.63045 17.439 6.59178C17.3285 6.52498 17.2525 6.52146 16.2508 6.51443C15.6637 6.51092 15.1352 6.52146 15.0799 6.53904Z" fill="#BCBCBC"/>
<path d="M5.14293 7.60428C5.0773 7.64646 4.99786 7.73787 4.96678 7.80467C4.90806 7.92068 4.9046 8.21951 4.9046 12.5156C4.9046 16.8117 4.90806 17.1105 4.96678 17.2265C4.99786 17.2933 5.0773 17.3847 5.14293 17.4269C5.26036 17.5078 5.27418 17.5078 6.38635 17.5078C7.44326 17.5078 7.51924 17.5043 7.62286 17.4375C7.68503 17.4023 7.76102 17.3179 7.79556 17.2547C7.85428 17.1457 7.85773 16.8996 7.85773 12.5156C7.85773 8.13162 7.85428 7.88553 7.79556 7.77654C7.76102 7.71326 7.68503 7.62889 7.62286 7.59373C7.51924 7.52693 7.44326 7.52342 6.38635 7.52342C5.27418 7.52342 5.26036 7.52342 5.14293 7.60428Z" fill="#BCBCBC"/>
<path d="M10.0613 9.59764C9.99918 9.63279 9.92319 9.71717 9.88865 9.78045C9.82993 9.88943 9.82648 10.0969 9.82648 13.5176C9.82648 16.9383 9.82993 17.1457 9.88865 17.2547C9.92319 17.3179 9.99918 17.4023 10.0613 17.4375C10.165 17.5043 10.241 17.5078 11.2979 17.5078C12.41 17.5078 12.4238 17.5078 12.5413 17.4269C12.7969 17.2547 12.7796 17.5183 12.7796 13.5176C12.7796 9.51678 12.7969 9.78045 12.5413 9.60818C12.4238 9.52732 12.41 9.52732 11.2979 9.52732C10.241 9.52732 10.165 9.53084 10.0613 9.59764Z" fill="#BCBCBC"/>
<path d="M0.234868 11.591C0.186513 11.6226 0.110526 11.707 0.0725329 11.7808C0 11.9074 0 11.939 0 14.523C0 17.0719 0.00345395 17.1422 0.0690789 17.2547C0.107072 17.3179 0.186513 17.3988 0.248684 17.4375C0.355757 17.5043 0.424836 17.5078 1.46102 17.5078C2.68372 17.5078 2.73207 17.5008 2.86678 17.2793C2.93586 17.1668 2.93586 17.1105 2.93586 14.523C2.93586 11.6051 2.94622 11.7422 2.71826 11.6015C2.61464 11.5347 2.53865 11.5312 1.46793 11.5312C0.469737 11.5347 0.317763 11.5418 0.234868 11.591Z" fill="#BCBCBC"/>
</svg>
