<svg width="32" height="32" viewBox="0 0 32 32" fill="none" xmlns="http://www.w3.org/2000/svg">
<circle cx="16" cy="16" r="16" fill="white"/>
<g clip-path="url(#clip0_121_1412)">
<path d="M16 10.5V9" stroke="#18181E" stroke-width="1.5" stroke-linecap="round" stroke-linejoin="round"/>
<path d="M16 19.5C17.933 19.5 19.5 17.933 19.5 16C19.5 14.067 17.933 12.5 16 12.5C14.067 12.5 12.5 14.067 12.5 16C12.5 17.933 14.067 19.5 16 19.5Z" stroke="#18181E" stroke-width="1.5" stroke-linecap="round" stroke-linejoin="round"/>
<path d="M12 12L11 11" stroke="#18181E" stroke-width="1.5" stroke-linecap="round" stroke-linejoin="round"/>
<path d="M12 20L11 21" stroke="#18181E" stroke-width="1.5" stroke-linecap="round" stroke-linejoin="round"/>
<path d="M20 12L21 11" stroke="#18181E" stroke-width="1.5" stroke-linecap="round" stroke-linejoin="round"/>
<path d="M20 20L21 21" stroke="#18181E" stroke-width="1.5" stroke-linecap="round" stroke-linejoin="round"/>
<path d="M10.5 16H9" stroke="#18181E" stroke-width="1.5" stroke-linecap="round" stroke-linejoin="round"/>
<path d="M16 21.5V23" stroke="#18181E" stroke-width="1.5" stroke-linecap="round" stroke-linejoin="round"/>
<path d="M21.5 16H23" stroke="#18181E" stroke-width="1.5" stroke-linecap="round" stroke-linejoin="round"/>
</g>
<defs>
<clipPath id="clip0_121_1412">
<rect width="16" height="16" fill="white" transform="translate(8 8)"/>
</clipPath>
</defs>
</svg>
