<svg width="15" height="11" viewBox="0 0 15 11" fill="none" xmlns="http://www.w3.org/2000/svg">
<path d="M9.9 2.35001C9.9 1.75327 9.66295 1.18097 9.24099 0.759016C8.81903 0.337059 8.24674 0.100006 7.65 0.100006H2.25C1.65326 0.100006 1.08097 0.337059 0.65901 0.759016C0.237053 1.18097 0 1.75327 0 2.35001V8.65001C0 9.24674 0.237053 9.81904 0.65901 10.241C1.08097 10.663 1.65326 10.9 2.25 10.9H7.65C8.24674 10.9 8.81903 10.663 9.24099 10.241C9.66295 9.81904 9.9 9.24674 9.9 8.65001V2.35001ZM10.8 3.63701V7.37381L13.2876 9.48881C13.3858 9.57236 13.5059 9.62604 13.6336 9.64349C13.7614 9.66094 13.8915 9.64143 14.0085 9.58728C14.1255 9.53313 14.2246 9.44659 14.294 9.33791C14.3633 9.22923 14.4001 9.10295 14.4 8.974V2.07371C14.3998 1.94552 14.3631 1.82005 14.2942 1.71197C14.2252 1.60389 14.127 1.51766 14.0109 1.46338C13.8947 1.40909 13.7656 1.38899 13.6384 1.40543C13.5113 1.42187 13.3915 1.47417 13.293 1.55621L10.8 3.63701Z" fill="#CDCDCD"/>
</svg>
