<svg width="22" height="22" viewBox="0 0 22 22" fill="none" xmlns="http://www.w3.org/2000/svg">
<path d="M17.4167 3.66669H13.585C13.3923 3.1358 13.0408 2.67711 12.5783 2.35296C12.1159 2.02881 11.5648 1.85492 11 1.85492C10.4352 1.85492 9.88414 2.02881 9.42165 2.35296C8.95916 2.67711 8.60769 3.1358 8.415 3.66669H4.58333C4.0971 3.66669 3.63079 3.85984 3.28697 4.20366C2.94315 4.54748 2.75 5.01379 2.75 5.50002V18.3334C2.75 18.8196 2.94315 19.2859 3.28697 19.6297C3.63079 19.9735 4.0971 20.1667 4.58333 20.1667H17.4167C17.9029 20.1667 18.3692 19.9735 18.713 19.6297C19.0568 19.2859 19.25 18.8196 19.25 18.3334V5.50002C19.25 5.01379 19.0568 4.54748 18.713 4.20366C18.3692 3.85984 17.9029 3.66669 17.4167 3.66669ZM11 3.66669C11.1813 3.66669 11.3585 3.72045 11.5093 3.82118C11.66 3.9219 11.7775 4.06506 11.8469 4.23256C11.9163 4.40006 11.9344 4.58437 11.8991 4.76219C11.8637 4.94 11.7764 5.10334 11.6482 5.23154C11.52 5.35974 11.3566 5.44704 11.1788 5.48241C11.001 5.51778 10.8167 5.49963 10.6492 5.43025C10.4817 5.36087 10.3385 5.24337 10.2378 5.09263C10.1371 4.94188 10.0833 4.76466 10.0833 4.58336C10.0833 4.34024 10.1799 4.10708 10.3518 3.93518C10.5237 3.76327 10.7569 3.66669 11 3.66669ZM17.4167 17.4167H4.58333V13.75H17.4167V17.4167ZM17.4167 11.9167H4.58333V8.25002H17.4167V11.9167Z" fill="#9595A7"/>
<path d="M15.5833 11C16.0896 11 16.5 10.5896 16.5 10.0834C16.5 9.57709 16.0896 9.16669 15.5833 9.16669C15.0771 9.16669 14.6667 9.57709 14.6667 10.0834C14.6667 10.5896 15.0771 11 15.5833 11Z" fill="#9595A7"/>
<path d="M12.8333 11C13.3396 11 13.75 10.5896 13.75 10.0834C13.75 9.57709 13.3396 9.16669 12.8333 9.16669C12.3271 9.16669 11.9167 9.57709 11.9167 10.0834C11.9167 10.5896 12.3271 11 12.8333 11Z" fill="#9595A7"/>
<path d="M12.8333 16.5C13.3396 16.5 13.75 16.0896 13.75 15.5834C13.75 15.0771 13.3396 14.6667 12.8333 14.6667C12.3271 14.6667 11.9167 15.0771 11.9167 15.5834C11.9167 16.0896 12.3271 16.5 12.8333 16.5Z" fill="#9595A7"/>
<path d="M15.5833 16.5C16.0896 16.5 16.5 16.0896 16.5 15.5834C16.5 15.0771 16.0896 14.6667 15.5833 14.6667C15.0771 14.6667 14.6667 15.0771 14.6667 15.5834C14.6667 16.0896 15.0771 16.5 15.5833 16.5Z" fill="#9595A7"/>
<path d="M5.5 9.16669H10.0833V11H5.5V9.16669ZM5.5 14.6667H10.0833V16.5H5.5V14.6667Z" fill="#9595A7"/>
</svg>
