<svg width="22" height="22" viewBox="0 0 22 22" fill="none" xmlns="http://www.w3.org/2000/svg">
<g clip-path="url(#clip0_57_261)">
<path d="M16.2781 7.10268L16.5133 6.97931C16.8814 6.78627 17.0222 6.33485 16.8292 5.96677L14.9714 2.42439C14.8306 2.15594 14.5423 1.99659 14.2396 2.02482C13.9368 2.05305 13.6808 2.2579 13.5899 2.549L13.0425 4.30407C9.36266 3.18165 5.46209 5.23792 4.31726 8.91536C3.16571 12.6069 5.22384 16.5312 8.91539 17.6828C12.6069 18.8343 16.5312 16.7762 17.6828 13.0846C17.8473 12.5573 17.5526 11.9955 17.0253 11.831C16.4979 11.6665 15.9361 11.9611 15.7716 12.4885C14.9491 15.1253 12.1456 16.5956 9.50879 15.773C6.87197 14.9505 5.40167 12.147 6.22421 9.51022C7.0428 6.88605 9.81976 5.41907 12.4448 6.21247L11.9054 7.94922C11.8146 8.24032 11.9087 8.5544 12.1418 8.74977C12.3748 8.94514 12.7025 8.97793 12.971 8.83714L16.2781 7.10268Z" fill="#585865"/>
</g>
<defs>
<clipPath id="clip0_57_261">
<rect width="16" height="16" fill="white" transform="translate(0.199585 7.63089) rotate(-27.6751)"/>
</clipPath>
</defs>
</svg>
