<svg width="24" height="24" viewBox="0 0 24 24" fill="none" xmlns="http://www.w3.org/2000/svg">
<path d="M15.6 7.79999C15.6 7.00434 15.2839 6.24128 14.7213 5.67867C14.1587 5.11606 13.3956 4.79999 12.6 4.79999H5.39999C4.60434 4.79999 3.84128 5.11606 3.27867 5.67867C2.71606 6.24128 2.39999 7.00434 2.39999 7.79999V16.2C2.39999 16.9956 2.71606 17.7587 3.27867 18.3213C3.84128 18.8839 4.60434 19.2 5.39999 19.2H12.6C13.3956 19.2 14.1587 18.8839 14.7213 18.3213C15.2839 17.7587 15.6 16.9956 15.6 16.2V7.79999ZM16.8 9.51599V14.4984L20.1168 17.3184C20.2477 17.4298 20.4078 17.5014 20.5782 17.5246C20.7485 17.5479 20.922 17.5219 21.078 17.4497C21.234 17.3775 21.3661 17.2621 21.4586 17.1172C21.5511 16.9723 21.6002 16.8039 21.6 16.632V7.43159C21.5997 7.26068 21.5508 7.09338 21.4589 6.94927C21.367 6.80516 21.236 6.69019 21.0811 6.61781C20.9263 6.54543 20.7541 6.51864 20.5846 6.54056C20.4151 6.56248 20.2553 6.6322 20.124 6.74159L16.8 9.51599Z" fill="#585865"/>
</svg>
