<svg width="22" height="22" viewBox="0 0 22 22" fill="none" xmlns="http://www.w3.org/2000/svg">
<path d="M9.16667 4.58331H2.75C2.50688 4.58331 2.27373 4.67989 2.10182 4.8518C1.92991 5.02371 1.83333 5.25686 1.83333 5.49998V17.4166C1.83333 17.6598 1.92991 17.8929 2.10182 18.0648C2.27373 18.2367 2.50688 18.3333 2.75 18.3333H19.25C19.4931 18.3333 19.7263 18.2367 19.8982 18.0648C20.0701 17.8929 20.1667 17.6598 20.1667 17.4166V16.2708" stroke="#9595A7" stroke-width="1.5" stroke-linecap="round" stroke-linejoin="round"/>
<path d="M4.58333 10.5416H8.25M4.58333 14.2083H15.5833" stroke="#9595A7" stroke-width="1.5" stroke-linecap="round"/>
<path d="M15.5833 10.0833C17.1021 10.0833 18.3333 8.8521 18.3333 7.33331C18.3333 5.81453 17.1021 4.58331 15.5833 4.58331C14.0645 4.58331 12.8333 5.81453 12.8333 7.33331C12.8333 8.8521 14.0645 10.0833 15.5833 10.0833Z" stroke="#9595A7" stroke-width="1.5" stroke-linecap="round" stroke-linejoin="round"/>
<path d="M20.1667 13.0254C19.2715 11.2759 17.4167 10.0833 15.5833 10.0833C13.75 10.0833 12.8365 10.6026 11.8937 11.4583" stroke="#9595A7" stroke-width="1.5" stroke-linecap="round" stroke-linejoin="round"/>
</svg>
