<svg width="22" height="16" viewBox="0 0 22 16" fill="none" xmlns="http://www.w3.org/2000/svg">
<path d="M3.8047 0.424997C3.62189 0.504684 3.00782 1.15625 2.58595 1.72343C0.795323 4.12343 0.120324 7.16093 0.715636 10.1094C1.1047 12.0078 2.07032 13.8641 3.35001 15.1719C3.67345 15.5047 3.79532 15.5937 3.93126 15.6219C4.34376 15.6922 4.69532 15.4812 4.8172 15.0875C4.90626 14.7828 4.82189 14.5766 4.42814 14.15C3.77657 13.4375 3.3172 12.7625 2.89532 11.8906C1.41407 8.81562 1.79845 5.19218 3.89845 2.46875C4.01095 2.32812 4.25001 2.04687 4.42814 1.85C4.81251 1.42812 4.90626 1.2125 4.82189 0.926559C4.68126 0.462497 4.23126 0.237497 3.8047 0.424997Z" fill="white"/>
<path d="M17.5813 0.424998C17.4031 0.504686 17.2484 0.692186 17.1781 0.926561C17.0938 1.2125 17.1875 1.42812 17.5719 1.85C18.9453 3.34062 19.7516 5.12187 19.9484 7.10468C20.2109 9.68281 19.3672 12.1859 17.5719 14.15C17.1781 14.5766 17.0938 14.7828 17.1828 15.0875C17.3047 15.4812 17.6563 15.6922 18.0641 15.6219C18.2047 15.5937 18.3266 15.5047 18.65 15.1719C20.2016 13.5922 21.2375 11.2859 21.4531 8.96093C21.725 6.00312 20.7031 2.99375 18.7063 0.879686C18.2234 0.368749 17.9609 0.260936 17.5813 0.424998Z" fill="white"/>
<path d="M5.91406 2.60469C5.58593 2.81094 4.94374 3.58906 4.55937 4.24063C4.13281 4.97188 3.84218 5.76875 3.65468 6.71094C3.52812 7.36719 3.53749 8.70313 3.67812 9.39688C3.96874 10.8359 4.58749 12.0594 5.53906 13.0578C5.86249 13.3953 6.00312 13.4844 6.24218 13.4844C6.59843 13.4844 6.87031 13.2781 6.97812 12.9172C7.05781 12.6406 6.96874 12.4109 6.63124 12.0406C5.87187 11.2063 5.39843 10.2828 5.15468 9.1625C5.03749 8.61875 5.03749 7.38125 5.15468 6.8375C5.39843 5.71719 5.87187 4.79375 6.63124 3.95938C7.06249 3.48594 7.11406 3.14844 6.81874 2.77344C6.62187 2.52031 6.18124 2.43594 5.91406 2.60469Z" fill="white"/>
<path d="M15.425 2.58125C15.2469 2.66094 15.0922 2.84844 15.0219 3.08281C14.9422 3.35938 15.0313 3.58906 15.3688 3.95937C15.9406 4.59219 16.3391 5.24844 16.6156 6.03125C16.8641 6.73437 16.9297 7.14687 16.9297 8C16.9297 8.85312 16.8641 9.26562 16.6156 9.96875C16.3484 10.7234 15.9359 11.4125 15.3875 12.0172C15.0313 12.4156 14.9422 12.6359 15.0219 12.9172C15.1297 13.2781 15.4016 13.4844 15.7578 13.4844C15.9875 13.4844 16.1328 13.4 16.4422 13.0766C17.4078 12.0828 18.0453 10.8078 18.3453 9.28906C18.4719 8.6375 18.4578 7.29687 18.3219 6.60312C18.0359 5.16406 17.4125 3.94531 16.4609 2.94219C16.3063 2.78281 16.1234 2.61875 16.0531 2.58125C15.8938 2.50156 15.6172 2.50156 15.425 2.58125Z" fill="white"/>
<path d="M8.25783 4.17504C8.13127 4.23129 7.94377 4.37192 7.84533 4.48442C7.48908 4.87348 7.50783 4.6766 7.50783 8.00004C7.50783 11.3375 7.48908 11.1313 7.8547 11.5297C8.13127 11.8297 8.44064 11.9516 8.86252 11.9282C9.19533 11.9141 9.2047 11.9047 11.6422 10.6579C14.7594 9.05942 14.7875 9.04535 14.9703 8.8016C15.1672 8.54379 15.2844 8.14535 15.2469 7.8641C15.2047 7.56879 15.0125 7.18442 14.8156 7.02504C14.6703 6.90317 9.57502 4.25004 9.24689 4.12348C8.99377 4.02973 8.52033 4.04848 8.25783 4.17504Z" fill="white"/>
</svg>
