<svg width="25" height="25" viewBox="0 0 25 25" fill="none" xmlns="http://www.w3.org/2000/svg">
<path d="M12.5207 21.3853C10.0936 21.3853 7.66649 20.9999 5.36441 20.229C4.48941 19.927 3.82274 19.3124 3.53107 18.5103C3.22899 17.7082 3.33316 16.8228 3.81232 16.0311L5.01024 14.0415C5.26024 13.6249 5.48941 12.7915 5.48941 12.302V9.29156C5.48941 5.41656 8.64566 2.26031 12.5207 2.26031C16.3957 2.26031 19.5519 5.41656 19.5519 9.29156V12.302C19.5519 12.7811 19.7811 13.6249 20.0311 14.052L21.2186 16.0311C21.6665 16.7811 21.7499 17.6874 21.4478 18.5103C21.1457 19.3332 20.4894 19.9582 19.6665 20.229C17.3749 20.9999 14.9478 21.3853 12.5207 21.3853ZM12.5207 3.82281C9.51024 3.82281 7.05191 6.27073 7.05191 9.29156V12.302C7.05191 13.0624 6.73941 14.1874 6.35399 14.8436L5.15607 16.8332C4.92691 17.2186 4.86441 17.6249 4.99982 17.9686C5.12482 18.3228 5.43732 18.5936 5.86441 18.7395C10.2186 20.1978 14.8332 20.1978 19.1874 18.7395C19.5624 18.6145 19.854 18.3332 19.9894 17.9582C20.1249 17.5832 20.0936 17.177 19.8853 16.8332L18.6874 14.8436C18.2915 14.1665 17.9894 13.052 17.9894 12.2915V9.29156C17.9894 6.27073 15.5415 3.82281 12.5207 3.82281Z" fill="white"/>
<path d="M14.4579 4.10434C14.385 4.10434 14.3121 4.09392 14.2392 4.07309C13.9371 3.98976 13.6454 3.92726 13.3642 3.88559C12.4787 3.77101 11.6246 3.83351 10.8225 4.07309C10.5308 4.16684 10.2184 4.07309 10.0204 3.85434C9.82253 3.63559 9.76003 3.32309 9.87461 3.04184C10.3017 1.94809 11.3433 1.22934 12.5308 1.22934C13.7183 1.22934 14.76 1.93767 15.1871 3.04184C15.2912 3.32309 15.2392 3.63559 15.0412 3.85434C14.885 4.02101 14.6662 4.10434 14.4579 4.10434Z" fill="white"/>
<path d="M12.5202 23.7605C11.489 23.7605 10.489 23.3438 9.75985 22.6147C9.03068 21.8855 8.61401 20.8855 8.61401 19.8542H10.1765C10.1765 20.4688 10.4265 21.073 10.864 21.5105C11.3015 21.948 11.9056 22.198 12.5202 22.198C13.8119 22.198 14.864 21.1459 14.864 19.8542H16.4265C16.4265 22.0105 14.6765 23.7605 12.5202 23.7605Z" fill="white"/>
<circle cx="18" cy="5" r="3" fill="#FF2525"/>
</svg>
