<svg width="18" height="18" viewBox="0 0 18 18" fill="none" xmlns="http://www.w3.org/2000/svg">
<path fill-rule="evenodd" clip-rule="evenodd" d="M0 6C0 3.172 -5.96046e-08 1.757 0.879 0.879C1.757 -5.96046e-08 3.172 0 6 0H12.343C13.161 0 13.569 -4.47035e-08 13.937 0.152C14.304 0.304 14.593 0.594 15.172 1.172L16.828 2.828C17.407 3.406 17.695 3.696 17.848 4.063C18 4.431 18 4.839 18 5.657V12C18 14.828 18 16.243 17.121 17.121C16.48 17.763 15.553 17.936 14 17.983V14.938C14 14.284 14 13.697 13.936 13.221C13.866 12.701 13.704 12.169 13.268 11.732C12.831 11.296 12.298 11.134 11.779 11.064C11.303 11 10.716 11 10.062 11H6.938C6.284 11 5.697 11 5.221 11.064C4.701 11.134 4.169 11.296 3.732 11.732C3.296 12.169 3.134 12.702 3.064 13.221C3 13.697 3 14.284 3 14.938V17.924C2.025 17.828 1.369 17.611 0.879 17.121C-5.96046e-08 16.243 0 14.828 0 12V6ZM12 15V18H6C5.645 18 5.312 18 5 17.998V15C5 14.265 5.002 13.814 5.046 13.487C5.085 13.201 5.139 13.153 5.146 13.147C5.153 13.14 5.2 13.085 5.487 13.046C5.814 13.002 6.265 13 7 13H10C10.735 13 11.186 13.002 11.513 13.046C11.8 13.085 11.847 13.139 11.853 13.146H11.854C11.861 13.153 11.915 13.201 11.954 13.487C11.998 13.814 12 14.265 12 15ZM4 4C3.73478 4 3.48043 4.10536 3.29289 4.29289C3.10536 4.48043 3 4.73478 3 5C3 5.26522 3.10536 5.51957 3.29289 5.70711C3.48043 5.89464 3.73478 6 4 6H9C9.26522 6 9.51957 5.89464 9.70711 5.70711C9.89464 5.51957 10 5.26522 10 5C10 4.73478 9.89464 4.48043 9.70711 4.29289C9.51957 4.10536 9.26522 4 9 4H4Z" fill="white"/>
</svg>
