<svg width="18" height="18" viewBox="0 0 18 18" fill="none" xmlns="http://www.w3.org/2000/svg">
<path d="M8.50781 0.0387254C7.4918 0.228569 6.64102 0.952788 6.33164 1.89498C6.05039 2.75279 6.15234 3.61412 6.62344 4.3313C7.35469 5.44576 8.70117 5.89576 9.95625 5.44224C10.7016 5.17154 11.3695 4.49654 11.6262 3.75123L11.707 3.51216L14.6953 3.53326L14.8289 3.61763C14.9027 3.66333 15.0047 3.76529 15.0574 3.84263L15.1523 3.98326L15.1734 6.17701L14.9344 6.1981C13.8164 6.30357 12.832 7.07349 12.5121 8.09302L12.4488 8.29693H5.51953L5.43867 8.05787C5.18203 7.31607 4.51406 6.64107 3.77227 6.37037C2.51367 5.91685 1.16367 6.36333 0.439453 7.47779C0.126563 7.95591 5.23869e-10 8.38833 5.23869e-10 9.00005C5.23869e-10 9.45005 0.0351562 9.64693 0.189844 10.0583C0.351562 10.4872 0.829688 11.0743 1.21992 11.3239L1.38867 11.4329V12.7231C1.38867 14.168 1.40977 14.3333 1.6418 14.7762C1.78945 15.061 2.21836 15.4899 2.50313 15.6376C2.95664 15.8766 3.09023 15.8907 4.76367 15.8907H6.26133L6.33867 16.1262C6.44766 16.4708 6.64102 16.7801 6.94336 17.1001C7.41797 17.5993 7.97695 17.8876 8.65195 17.9719C9.23555 18.0458 9.90703 17.9086 10.4098 17.6098C10.7156 17.4305 11.1762 16.9735 11.3695 16.6606C11.4609 16.5129 11.5734 16.2774 11.6191 16.1403L11.707 15.8907H15.5637L15.402 16.07C15.2191 16.2739 15.1523 16.4637 15.184 16.6958C15.2121 16.8961 15.3211 17.0684 15.4969 17.1844C15.6867 17.311 16.0383 17.318 16.2246 17.202C16.2914 17.1598 16.6957 16.7731 17.1246 16.3407C17.8172 15.6411 17.9051 15.5391 17.9473 15.3915C18 15.1946 17.9719 14.9731 17.877 14.8184C17.8418 14.7622 17.4586 14.3614 17.0262 13.936C16.3406 13.254 16.2211 13.1485 16.084 13.1133C15.6516 12.9973 15.2402 13.2575 15.184 13.6794C15.1523 13.9114 15.2191 14.1012 15.402 14.3051L15.5637 14.4844H11.707L11.6262 14.2489C11.3766 13.5211 10.7121 12.8356 9.99844 12.5719C9.31641 12.3188 8.66602 12.3153 7.99102 12.5614C7.23867 12.8356 6.57422 13.5141 6.33867 14.2489L6.26133 14.4879L3.26953 14.4669L3.13594 14.3825C3.06211 14.3368 2.96016 14.2348 2.90742 14.1575L2.8125 14.0169L2.79141 11.8266L3.12539 11.7844C3.7793 11.7036 4.3418 11.4223 4.80234 10.9442C5.09766 10.6383 5.31563 10.2973 5.43867 9.93873L5.51953 9.70318H12.4488L12.5262 9.94224C12.7547 10.6559 13.4543 11.3626 14.1961 11.6297C15.4512 12.0833 16.7977 11.6333 17.5289 10.5188C17.8383 10.0477 17.9648 9.61177 17.9648 9.00005C17.9648 8.54654 17.9297 8.35669 17.7715 7.93833C17.6133 7.50943 17.1633 6.95748 16.7625 6.68677L16.5762 6.56373V5.27349C16.5762 3.83209 16.5551 3.66685 16.323 3.22388C16.1754 2.93912 15.7465 2.51021 15.4617 2.36255C15.0082 2.12349 14.8746 2.10943 13.2047 2.10943H11.707L11.6262 1.87037C11.3766 1.14615 10.7121 0.4606 9.99844 0.196929C9.50977 0.014116 8.95781 -0.042134 8.50781 0.0387254ZM9.55898 1.5399C9.87891 1.68755 10.0828 1.89146 10.241 2.20787C10.3641 2.46099 10.3711 2.49263 10.3711 2.81255C10.3711 3.13248 10.3641 3.16412 10.241 3.41724C10.0828 3.73716 9.87891 3.93404 9.55195 4.08873C9.3375 4.19068 9.28477 4.20123 8.98242 4.20123C8.68008 4.20123 8.62734 4.19068 8.41289 4.08873C8.08594 3.93404 7.88203 3.73716 7.72383 3.41724C7.60078 3.16412 7.59375 3.13248 7.59375 2.81607C7.59375 2.51021 7.6043 2.45748 7.70625 2.24302C7.84688 1.94419 8.04727 1.72623 8.31094 1.58912C8.58516 1.44146 8.73984 1.4063 9.05977 1.42037C9.27422 1.43091 9.3832 1.45904 9.55898 1.5399ZM3.37148 7.7274C3.69141 7.87505 3.89531 8.07896 4.05352 8.39537C4.17656 8.64849 4.18359 8.68013 4.18359 9.00005C4.18359 9.31997 4.17656 9.35162 4.05352 9.60474C3.89531 9.92466 3.69141 10.1215 3.36445 10.2762C3.15 10.3782 3.09727 10.3887 2.79492 10.3887C2.49258 10.3887 2.43984 10.3782 2.22539 10.2762C1.89844 10.1215 1.69453 9.92466 1.53633 9.60474C1.41328 9.35162 1.40625 9.31998 1.40625 9.00357C1.40625 8.69771 1.4168 8.64498 1.51875 8.43052C1.65938 8.13169 1.85977 7.91373 2.12344 7.77662C2.39766 7.62896 2.55234 7.5938 2.87227 7.60787C3.08672 7.61841 3.1957 7.64654 3.37148 7.7274ZM15.7465 7.7274C16.0664 7.87505 16.2703 8.07896 16.4285 8.39537C16.5516 8.64849 16.5586 8.68013 16.5586 9.00005C16.5586 9.31997 16.5516 9.35162 16.4285 9.60474C16.2703 9.92466 16.0664 10.1215 15.7395 10.2762C15.525 10.3782 15.4723 10.3887 15.1699 10.3887C14.8676 10.3887 14.8148 10.3782 14.6004 10.2762C14.2734 10.1215 14.0695 9.92466 13.9113 9.60474C13.7883 9.35162 13.7813 9.31998 13.7813 9.00357C13.7813 8.69771 13.7918 8.64498 13.8938 8.43052C14.0344 8.13169 14.2348 7.91373 14.4984 7.77662C14.7727 7.62896 14.9273 7.5938 15.2473 7.60787C15.4617 7.61841 15.5707 7.64654 15.7465 7.7274ZM9.55898 13.9149C9.87891 14.0626 10.0828 14.2665 10.241 14.5829C10.3641 14.836 10.3711 14.8676 10.3711 15.1876C10.3711 15.5075 10.3641 15.5391 10.241 15.7922C10.0828 16.1122 9.87891 16.309 9.55195 16.4637C9.3375 16.5657 9.28477 16.5762 8.98242 16.5762C8.68008 16.5762 8.62734 16.5657 8.41992 16.4672C8.08594 16.3055 7.88203 16.1122 7.72734 15.7922C7.60078 15.5391 7.59375 15.5075 7.59375 15.1911C7.59375 14.8852 7.6043 14.8325 7.70625 14.618C7.84688 14.3192 8.04727 14.1012 8.31094 13.9641C8.58516 13.8165 8.73984 13.7813 9.05977 13.7954C9.27422 13.8059 9.3832 13.834 9.55898 13.9149Z" fill="#BCBCBC"/>
<path d="M3.11836 0.74185C2.96016 0.787553 2.73867 1.0231 2.69297 1.18482C2.61211 1.4731 2.66836 1.68755 2.88633 1.93013L3.04453 2.10591L0.453516 2.12701L0.309375 2.22193C0.0878906 2.36607 0 2.53833 0 2.81607C0 3.00591 0.0175781 3.06919 0.0949219 3.18873C0.147656 3.26607 0.249609 3.36802 0.323438 3.41373C0.457031 3.4981 0.460547 3.4981 1.75078 3.50865L3.04453 3.51919L2.88633 3.69498C2.70352 3.89888 2.63672 4.09224 2.66836 4.32076C2.72461 4.74263 3.13594 5.00279 3.56836 4.88677C3.70547 4.85162 3.825 4.74615 4.51055 4.06412C4.94297 3.63873 5.32617 3.23794 5.36484 3.17818C5.45625 3.03052 5.48438 2.79498 5.43164 2.60162C5.39648 2.46451 5.29102 2.34498 4.60898 1.65943C4.18359 1.22701 3.7793 0.843803 3.71953 0.805131C3.58594 0.720757 3.28359 0.689116 3.11836 0.74185Z" fill="#BCBCBC"/>
</svg>
