<svg width="16" height="18" viewBox="0 0 16 18" fill="none" xmlns="http://www.w3.org/2000/svg">
<path d="M13.6562 4.70244C13.914 4.84903 14.1281 5.06167 14.2764 5.31845C14.4247 5.57524 14.5019 5.86691 14.5 6.16344V11.6264C14.5 12.2332 14.1677 12.7927 13.6315 13.0874L8.569 16.2899C8.31802 16.4277 8.03632 16.5 7.75 16.5C7.46368 16.5 7.18198 16.4277 6.931 16.2899L1.8685 13.0874C1.60612 12.9441 1.38709 12.7328 1.23431 12.4758C1.08152 12.2188 1.0006 11.9254 1 11.6264V6.16269C1 5.55594 1.33225 4.99719 1.8685 4.70244L6.931 1.71744C7.1894 1.57496 7.47967 1.50024 7.77475 1.50024C8.06983 1.50024 8.3601 1.57496 8.6185 1.71744L13.681 4.70244H13.6562Z" stroke="#BCBCBC" stroke-width="1.5" stroke-linecap="round" stroke-linejoin="round"/>
<path d="M5.5 8.99994C5.5 9.59667 5.73705 10.169 6.15901 10.5909C6.58097 11.0129 7.15326 11.2499 7.75 11.2499C8.34674 11.2499 8.91903 11.0129 9.34099 10.5909C9.76295 10.169 10 9.59667 10 8.99994C10 8.4032 9.76295 7.8309 9.34099 7.40895C8.91903 6.98699 8.34674 6.74994 7.75 6.74994C7.15326 6.74994 6.58097 6.98699 6.15901 7.40895C5.73705 7.8309 5.5 8.4032 5.5 8.99994Z" stroke="#BCBCBC" stroke-width="1.5" stroke-linecap="round" stroke-linejoin="round"/>
</svg>
