<svg width="18" height="18" viewBox="0 0 18 18" fill="none" xmlns="http://www.w3.org/2000/svg">
<path d="M14.9062 4.70256C15.164 4.84915 15.3781 5.06179 15.5264 5.31858C15.6747 5.57536 15.7519 5.86703 15.75 6.16356V11.6266C15.75 12.2333 15.4177 12.7928 14.8815 13.0876L9.819 16.2901C9.56802 16.4279 9.28632 16.5001 9 16.5001C8.71368 16.5001 8.43198 16.4279 8.181 16.2901L3.1185 13.0876C2.85612 12.9442 2.63709 12.7329 2.48431 12.4759C2.33152 12.2189 2.2506 11.9256 2.25 11.6266V6.16281C2.25 5.55606 2.58225 4.99731 3.1185 4.70256L8.181 1.71756C8.4394 1.57509 8.72967 1.50037 9.02475 1.50037C9.31983 1.50037 9.6101 1.57509 9.8685 1.71756L14.931 4.70256H14.9062Z" stroke="#9595A7" stroke-width="1.5" stroke-linecap="round" stroke-linejoin="round"/>
<path d="M6.75 9C6.75 9.59674 6.98705 10.169 7.40901 10.591C7.83097 11.0129 8.40326 11.25 9 11.25C9.59674 11.25 10.169 11.0129 10.591 10.591C11.0129 10.169 11.25 9.59674 11.25 9C11.25 8.40326 11.0129 7.83097 10.591 7.40901C10.169 6.98705 9.59674 6.75 9 6.75C8.40326 6.75 7.83097 6.98705 7.40901 7.40901C6.98705 7.83097 6.75 8.40326 6.75 9Z" stroke="#9595A7" stroke-width="1.5" stroke-linecap="round" stroke-linejoin="round"/>
</svg>
