<svg width="30" height="20" viewBox="0 0 30 20" fill="none" xmlns="http://www.w3.org/2000/svg">
<path d="M18.6961 9.10374H27.4236C29.1367 9.10374 30 8.40847 30 6.97449V2.11841C30 0.684382 29.1367 0 27.4236 0H18.6961C16.9829 0 16.1196 0.684382 16.1196 2.11841V6.97449C16.1196 8.40847 16.9829 9.10374 18.6961 9.10374ZM2.5764 9.10374H11.3039C13.0171 9.10374 13.8804 8.40847 13.8804 6.97449V2.11841C13.8804 0.684382 13.0171 0 11.3039 0H2.5764C0.863309 0 0 0.684382 0 2.11841V6.97449C0 8.40847 0.863309 9.10374 2.5764 9.10374ZM2.5764 20H11.3039C13.0171 20 13.8804 19.3156 13.8804 17.8816V13.0147C13.8804 11.5915 13.0171 10.8963 11.3039 10.8963H2.5764C0.863309 10.8963 0 11.5915 0 13.0147V17.8816C0 19.3156 0.863309 20 2.5764 20ZM18.6961 20H27.4236C29.1367 20 30 19.3156 30 17.8816V13.0147C30 11.5915 29.1367 10.8963 27.4236 10.8963H18.6961C16.9829 10.8963 16.1196 11.5915 16.1196 13.0147V17.8816C16.1196 19.3156 16.9829 20 18.6961 20Z" fill="white"/>
</svg>
