<svg width="21" height="21" viewBox="0 0 21 21" fill="none" xmlns="http://www.w3.org/2000/svg">
<g id="bx:message-square-detail">
<path id="Vector" d="M14 1.75H7C4.10462 1.75 1.75 4.10462 1.75 7V18.375C1.75 18.6071 1.84219 18.8296 2.00628 18.9937C2.17038 19.1578 2.39294 19.25 2.625 19.25H14C16.8954 19.25 19.25 16.8954 19.25 14V7C19.25 4.10462 16.8954 1.75 14 1.75ZM17.5 14C17.5 15.9303 15.9303 17.5 14 17.5H3.5V7C3.5 5.06975 5.06975 3.5 7 3.5H14C15.9303 3.5 17.5 5.06975 17.5 7V14Z" fill="#005FB4"/>
<path id="Vector_2" d="M6.125 7.875H14.875V9.625H6.125V7.875ZM6.125 11.375H12.25V13.125H6.125V11.375Z" fill="#005FB4"/>
</g>
</svg>
