<svg width="24" height="24" viewBox="0 0 24 24" fill="none" xmlns="http://www.w3.org/2000/svg">
<path d="M16.4771 3.004C16.6441 3.019 16.7171 3.223 16.5971 3.342L8.27707 11.662C8.18308 11.756 8.11578 11.8734 8.08207 12.002L7.08207 15.832C7.04905 15.9586 7.04972 16.0916 7.084 16.2178C7.11827 16.344 7.18497 16.4591 7.27746 16.5516C7.36995 16.6441 7.48503 16.7108 7.61126 16.7451C7.73749 16.7793 7.8705 16.78 7.99707 16.747L11.8261 15.747C11.9548 15.713 12.0721 15.6453 12.1661 15.551L20.6041 7.113C20.6305 7.0859 20.6641 7.06693 20.7009 7.05833C20.7378 7.04974 20.7763 7.05188 20.812 7.06451C20.8476 7.07713 20.8789 7.09971 20.9022 7.12957C20.9254 7.15943 20.9396 7.19532 20.9431 7.233C21.2941 10.5826 21.274 13.9608 20.8831 17.306C20.6601 19.211 19.1291 20.706 17.2311 20.919C13.7547 21.3044 10.2464 21.3044 6.77007 20.919C4.87107 20.706 3.34007 19.211 3.11707 17.306C2.70479 13.781 2.70479 10.22 3.11707 6.695C3.34007 4.789 4.87107 3.294 6.77007 3.082C9.99458 2.72466 13.2472 2.69852 16.4771 3.004Z" fill="#B4B7CB"/>
<path d="M17.8229 4.23702C17.8461 4.21374 17.8737 4.19527 17.9041 4.18266C17.9344 4.17006 17.967 4.16357 17.9999 4.16357C18.0328 4.16357 18.0653 4.17006 18.0957 4.18266C18.1261 4.19527 18.1537 4.21374 18.1769 4.23702L19.5909 5.65202C19.6376 5.69888 19.6638 5.76235 19.6638 5.82852C19.6638 5.89469 19.6376 5.95816 19.5909 6.00502L11.2979 14.3C11.2663 14.3313 11.2269 14.3538 11.1839 14.365L9.26988 14.865C9.22769 14.876 9.18335 14.8758 9.14128 14.8644C9.0992 14.853 9.06084 14.8307 9.03001 14.7999C8.99918 14.7691 8.97695 14.7307 8.96552 14.6886C8.9541 14.6465 8.95388 14.6022 8.96488 14.56L9.46488 12.646C9.47601 12.6029 9.49845 12.5636 9.52988 12.532L17.8229 4.23702Z" fill="#B4B7CB"/>
</svg>
