<svg width="21" height="21" viewBox="0 0 21 21" fill="none" xmlns="http://www.w3.org/2000/svg">
<path d="M10.5 21C7.71523 21 5.04451 19.8938 3.07538 17.9246C1.10625 15.9555 0 13.2848 0 10.5C0 7.71523 1.10625 5.04451 3.07538 3.07538C5.04451 1.10625 7.71523 0 10.5 0C13.2848 0 15.9555 1.10625 17.9246 3.07538C19.8938 5.04451 21 7.71523 21 10.5C21 13.2848 19.8938 15.9555 17.9246 17.9246C15.9555 19.8938 13.2848 21 10.5 21ZM18.6375 12.6C18.9927 11.2225 18.9927 9.77747 18.6375 8.4H14.6265C14.7238 9.79831 14.7238 11.2017 14.6265 12.6H18.6375ZM17.7765 14.7H14.3955C14.2196 15.9656 13.8845 17.2039 13.398 18.3855C15.2426 17.7051 16.7913 16.4014 17.7765 14.7ZM8.484 12.6H12.516C12.63 11.2023 12.63 9.79768 12.516 8.4H8.484C8.37004 9.79768 8.37004 11.2023 8.484 12.6ZM8.7465 14.7C9.177 17.22 9.933 18.9 10.5 18.9C11.067 18.9 11.823 17.22 12.2535 14.7H8.7465ZM2.3625 12.6H6.3735C6.27619 11.2017 6.27619 9.79831 6.3735 8.4H2.3625C2.00731 9.77747 2.00731 11.2225 2.3625 12.6ZM3.2235 14.7C4.20867 16.4014 5.75745 17.7051 7.602 18.3855C7.161 17.3775 6.825 16.1175 6.6045 14.7H3.2235ZM17.7765 6.3C16.7913 4.59858 15.2426 3.29494 13.398 2.6145C13.839 3.6225 14.175 4.8825 14.3955 6.3H17.7765ZM8.7465 6.3H12.2535C11.823 3.78 11.067 2.1 10.5 2.1C9.933 2.1 9.177 3.78 8.7465 6.3ZM3.2235 6.3H6.6045C6.8145 4.8825 7.161 3.6225 7.602 2.6145C5.75745 3.29494 4.20867 4.59858 3.2235 6.3Z" fill="#005FB4"/>
</svg>
