<svg xmlns="http://www.w3.org/2000/svg" width="24.202" height="24.202" viewBox="0 0 24.202 24.202">
  <g id="Group_448" data-name="Group 448" transform="translate(-1677.2 -579)">
    <path id="Path_1235" data-name="Path 1235" d="M5.2,21.35v3.7a1.307,1.307,0,0,0,1.306,1.306h3.707a1.307,1.307,0,0,0,.924-.383L24.323,12.793a1.306,1.306,0,0,0,0-1.848L20.616,7.239a1.306,1.306,0,0,0-1.848,0L5.583,20.426A1.306,1.306,0,0,0,5.2,21.35Z" transform="translate(1672 576.841)" fill="#2166e5"/>
    <path id="Path_1236" data-name="Path 1236" d="M18.819,4.363,22.526,8.07a1.306,1.306,0,0,1,0,1.848L21.394,11.05a1.306,1.306,0,0,1-1.848,0L15.839,7.343a1.307,1.307,0,0,1,0-1.848l1.133-1.133A1.306,1.306,0,0,1,18.819,4.363Z" transform="translate(1678.494 575.02)" fill="#2166e5"/>
  </g>
</svg>
