<svg xmlns="http://www.w3.org/2000/svg" width="18.181" height="18.181" viewBox="0 0 18.181 18.181">
  <g id="noun-edit-5208207" transform="translate(-116.67 -46.668)">
    <path id="Path_1206" data-name="Path 1206" d="M116.67,47.577a.909.909,0,0,1,.909-.909h8.182v1.818h-7.273V63.031h14.545V55.759h1.818V63.94a.909.909,0,0,1-.909.909H117.579a.909.909,0,0,1-.909-.909Z" transform="translate(0)" fill="#4579f5" fill-rule="evenodd"/>
    <path id="Path_1207" data-name="Path 1207" d="M265.826,46.668a.909.909,0,0,1,.643.266l2.661,2.661a.909.909,0,0,1,0,1.286l-7.982,7.982a.909.909,0,0,1-.561.263l-2.927.266a.909.909,0,0,1-.988-.988l.266-2.927a.909.909,0,0,1,.263-.561l7.982-7.982a.909.909,0,0,1,.643-.266Zm-1.109,3.3,1.375,1.375,1.109-1.109-1.375-1.375Zm.09,2.661-1.375-1.375-4.712,4.712-.137,1.513,1.513-.137Z" transform="translate(-134.544)" fill="#4579f5" fill-rule="evenodd"/>
  </g>
</svg>
